<svg width="422" height="292" viewBox="0 0 422 292" fill="none" xmlns="http://www.w3.org/2000/svg">
<rect width="422" height="292" fill="#F5F5F5"/>
<rect width="422" height="292" fill="white"/>
<rect x="25.3422" y="48.9057" width="215.658" height="194.094" fill="white"/>
<path d="M132.143 49.4292C132.531 48.7818 133.469 48.7818 133.857 49.4292L146.897 71.1623C147.334 71.8905 146.725 72.8057 145.884 72.6869C142.772 72.2472 136.908 71.5 133 71.5C128.711 71.5 123.147 72.223 120.146 72.6651C119.301 72.7896 118.679 71.8678 119.119 71.1351L132.143 49.4292Z" fill="#FF8811"/>
<path d="M84.3585 60.178C84.427 59.4261 85.272 59.0185 85.9031 59.4327L107.091 73.3403C107.801 73.8062 107.65 74.8954 106.841 75.1538C103.847 76.11 98.2417 77.985 94.7216 79.6834C90.8585 81.5473 86.1618 84.6161 83.651 86.3184C82.9438 86.7979 81.9835 86.2377 82.061 85.3867L84.3585 60.178Z" fill="#FF8811"/>
<path d="M218.365 90.233C219.117 90.1617 219.673 90.9169 219.382 91.6136L209.622 115.004C209.295 115.788 208.197 115.84 207.794 115.092C206.302 112.326 203.425 107.163 201.106 104.016C198.561 100.563 194.679 96.5134 192.543 94.3598C191.941 93.7532 192.314 92.706 193.165 92.6252L218.365 90.233Z" fill="#FF8811"/>
<path d="M47.5577 90.233C46.8061 90.1617 46.2496 90.9169 46.5403 91.6136L56.3005 115.004C56.6276 115.788 57.726 115.84 58.1291 115.092C59.6212 112.326 62.4981 107.163 64.8167 104.016C67.3612 100.563 71.2438 96.5134 73.38 94.3598C73.9817 93.7532 73.6083 92.706 72.7576 92.6252L47.5577 90.233Z" fill="#FF8811"/>
<path d="M236.812 134.159C237.521 134.418 237.697 135.34 237.135 135.843L218.245 152.741C217.612 153.307 216.599 152.881 216.557 152.033C216.403 148.894 216.033 142.995 215.297 139.156C214.49 134.943 212.732 129.615 211.733 126.751C211.451 125.945 212.24 125.161 213.042 125.454L236.812 134.159Z" fill="#FF8811"/>
<path d="M29.389 134.159C28.6801 134.418 28.5035 135.34 29.0661 135.843L47.9557 152.741C48.5886 153.307 49.6022 152.881 49.6439 152.033C49.7979 148.894 50.1679 142.995 50.9038 139.156C51.7113 134.943 53.4688 129.615 54.468 126.751C54.7494 125.945 53.961 125.161 53.1587 125.454L29.389 134.159Z" fill="#FF8811"/>
<path d="M179.913 59.3788C180.542 58.9618 181.389 59.3657 181.461 60.1172L183.873 85.3471C183.954 86.1924 183.01 86.756 182.302 86.2868C179.683 84.5502 174.712 81.3513 171.184 79.6685C167.313 77.8218 161.98 76.0791 159.081 75.186C158.265 74.9345 158.101 73.8349 158.813 73.3628L179.913 59.3788Z" fill="#FF8811"/>
<path d="M133 77C176.078 77 211 111.922 211 155H55C55 111.922 89.9218 77 133 77Z" fill="#FFE500"/>
<path d="M105.377 117.59C104.954 117.59 104.099 117.655 103.623 118.08C103.371 118.305 103.277 118.573 103.228 118.851C103.081 119.677 103.408 120.212 103.604 120.64C103.702 120.855 103.899 121.002 104.096 121.133C104.292 121.264 104.588 121.331 104.932 121.298C105.196 121.273 105.376 121.069 105.54 120.922C105.847 120.647 105.771 120.151 105.706 119.856C105.659 119.642 105.345 119.658 105.279 119.462C105.121 118.986 105.245 118.379 105.409 118.001C105.497 117.799 105.77 117.754 105.966 117.754C106.459 117.752 106.624 118.375 106.771 118.77C106.851 118.982 106.952 119.521 106.92 120.259C106.903 120.652 106.691 120.838 106.543 121.002C106.406 121.154 106.166 121.199 105.969 121.297C105.773 121.331 105.575 121.266 105.379 121.135C105.28 121.069 105.182 121.004 104.983 120.937" stroke="black" stroke-width="3" stroke-linecap="round"/>
<path d="M150.744 111.046C150.714 110.624 150.589 109.776 150.132 109.331C149.89 109.095 149.616 109.02 149.335 108.99C148.501 108.902 147.99 109.265 147.576 109.491C147.369 109.604 147.236 109.811 147.119 110.016C147.002 110.221 146.956 110.52 147.013 110.861C147.056 111.123 147.273 111.288 147.431 111.442C147.727 111.728 148.216 111.618 148.506 111.533C148.716 111.471 148.678 111.158 148.869 111.079C149.333 110.888 149.947 110.97 150.335 111.107C150.543 111.18 150.607 111.449 150.621 111.645C150.657 112.136 150.047 112.344 149.664 112.519C149.457 112.614 148.927 112.753 148.188 112.772C147.796 112.782 147.595 112.583 147.422 112.448C147.26 112.322 147.198 112.085 147.086 111.896C147.039 111.703 147.09 111.501 147.207 111.296C147.266 111.192 147.324 111.09 147.377 110.887" stroke="black" stroke-width="3" stroke-linecap="round"/>
<path d="M126.44 139.458C126.748 139.573 127.444 139.807 127.988 140C128.614 140.223 130.109 140.156 131.377 140.252C133.332 140.401 134.186 140.079 134.983 139.866C135.931 139.613 136.858 138.575 137.659 137.639C137.95 137.019 138.26 136.244 138.396 135.393C138.416 135.083 138.416 134.661 138.416 134.226" stroke="black" stroke-width="3" stroke-linecap="round"/>
<ellipse cx="133" cy="154.5" rx="78" ry="11.5" fill="#FFE500"/>
<path d="M185.963 231.594H185.884C184.065 237.963 161.083 243 133 243C104.917 243 81.9353 237.963 80.1162 231.594H80.0371L56.0488 163.89C65.5502 169.475 96.1802 173.566 132.5 173.566C170.719 173.566 202.636 169.035 210.265 163.001L185.963 231.594ZM55.1533 163.314L55 163.75V163.207C55.0497 163.243 55.1019 163.278 55.1533 163.314Z" fill="#FF4365"/>
<path d="M250.96 117.6C250.213 117.6 249.36 117.533 248.4 117.4C247.44 117.293 246.507 117.08 245.6 116.76C244.693 116.44 243.933 115.96 243.32 115.32C242.733 114.68 242.44 113.84 242.44 112.8C242.44 112.107 242.613 111.507 242.96 111C243.307 110.467 243.867 110.2 244.64 110.2C245.12 110.2 245.493 110.32 245.76 110.56C246.027 110.8 246.253 111.093 246.44 111.44C246.653 111.787 246.893 112.147 247.16 112.52C247.453 112.867 247.84 113.16 248.32 113.4C248.827 113.64 249.507 113.76 250.36 113.76C250.973 113.76 251.64 113.693 252.36 113.56C253.107 113.4 253.747 113.12 254.28 112.72C254.813 112.32 255.08 111.773 255.08 111.08C255.08 110.467 254.827 109.987 254.32 109.64C253.813 109.267 253.16 108.947 252.36 108.68C251.56 108.413 250.72 108.147 249.84 107.88C248.96 107.587 248.12 107.227 247.32 106.8C246.52 106.373 245.867 105.813 245.36 105.12C244.853 104.4 244.6 103.48 244.6 102.36C244.6 101.32 244.853 100.427 245.36 99.68C245.867 98.9333 246.52 98.32 247.32 97.84C248.147 97.3333 249.027 96.9733 249.96 96.76C250.92 96.52 251.84 96.4 252.72 96.4C253.227 96.4 253.813 96.4667 254.48 96.6C255.147 96.7067 255.8 96.8933 256.44 97.16C257.08 97.4267 257.613 97.8 258.04 98.28C258.467 98.7333 258.68 99.3067 258.68 100C258.68 101.227 258.067 101.84 256.84 101.84H256.32C255.52 101.387 254.84 101.04 254.28 100.8C253.72 100.56 253.08 100.44 252.36 100.44C252.04 100.44 251.587 100.48 251 100.56C250.44 100.613 249.933 100.76 249.48 101C249.027 101.24 248.8 101.627 248.8 102.16C248.8 102.613 249.053 102.987 249.56 103.28C250.067 103.573 250.72 103.853 251.52 104.12C252.32 104.387 253.16 104.68 254.04 105C254.92 105.32 255.76 105.733 256.56 106.24C257.36 106.72 258.013 107.333 258.52 108.08C259.027 108.827 259.28 109.76 259.28 110.88C259.28 112.507 258.867 113.813 258.04 114.8C257.24 115.787 256.2 116.507 254.92 116.96C253.667 117.387 252.347 117.6 250.96 117.6ZM269.277 116.6C268.131 116.6 267.171 116.36 266.397 115.88C265.651 115.373 265.064 114.72 264.637 113.92C264.211 113.12 263.904 112.253 263.717 111.32C263.557 110.36 263.477 109.413 263.477 108.48V106.52C263.477 106.44 263.517 106.133 263.597 105.6C263.677 105.04 263.757 104.44 263.837 103.8C263.944 103.16 264.024 102.68 264.077 102.36C264.157 101.987 264.251 101.52 264.357 100.96C264.491 100.373 264.651 99.8 264.837 99.24C265.051 98.6533 265.317 98.1733 265.637 97.8C265.984 97.4 266.397 97.2 266.877 97.2C267.597 97.2 268.144 97.4133 268.517 97.84C268.917 98.2667 269.117 98.7867 269.117 99.4C269.117 99.9067 269.037 100.4 268.877 100.88C268.744 101.36 268.624 101.853 268.517 102.36C268.331 103.373 268.144 104.387 267.957 105.4C267.797 106.413 267.717 107.44 267.717 108.48C267.717 108.853 267.744 109.333 267.797 109.92C267.851 110.507 267.997 111.027 268.237 111.48C268.477 111.933 268.891 112.16 269.477 112.16C269.931 112.16 270.464 111.867 271.077 111.28C271.717 110.693 272.384 109.933 273.077 109C273.797 108.067 274.517 107.053 275.237 105.96C275.957 104.84 276.624 103.76 277.237 102.72C277.877 101.653 278.424 100.72 278.877 99.92C279.331 99.0933 279.651 98.52 279.837 98.2C280.051 97.9067 280.277 97.6667 280.517 97.48C280.757 97.2933 281.064 97.2 281.437 97.2C282.691 97.2 283.437 97.7867 283.677 98.96V100.4C283.677 101.573 283.637 102.747 283.557 103.92C283.504 105.067 283.477 106.187 283.477 107.28V109.64C283.557 110.067 283.731 110.453 283.997 110.8C284.264 111.147 284.504 111.493 284.717 111.84C284.957 112.16 285.077 112.547 285.077 113C285.077 113.613 284.891 114.133 284.517 114.56C284.144 114.987 283.651 115.2 283.037 115.2C282.237 115.2 281.597 114.933 281.117 114.4C280.637 113.84 280.264 113.187 279.997 112.44C279.837 111.96 279.651 111.347 279.437 110.6C279.251 109.827 279.064 109.067 278.877 108.32C278.477 109.013 278.024 109.707 277.517 110.4C277.037 111.067 276.531 111.72 275.997 112.36C275.144 113.427 274.144 114.4 272.997 115.28C271.851 116.16 270.611 116.6 269.277 116.6ZM292.41 116.2C291.743 116.2 291.25 116.013 290.93 115.64C290.61 115.24 290.41 114.76 290.33 114.2C290.25 113.613 290.21 113.053 290.21 112.52C290.21 111.293 290.237 110.067 290.29 108.84C290.37 107.613 290.41 106.44 290.41 105.32C290.41 104.12 290.277 102.973 290.01 101.88C289.743 100.787 289.61 99.6933 289.61 98.6V97.04C289.85 96.48 290.103 96.1067 290.37 95.92C290.637 95.7067 290.997 95.6 291.45 95.6C292.277 95.6 292.877 95.8667 293.25 96.4C293.623 96.9067 293.863 97.52 293.97 98.24C294.103 98.9333 294.197 99.5733 294.25 100.16C294.277 100.453 294.33 101.027 294.41 101.88C294.517 102.733 294.583 103.533 294.61 104.28H294.77L294.93 104.12C295.437 103.373 295.97 102.573 296.53 101.72C297.09 100.867 297.703 100.067 298.37 99.32C299.063 98.5733 299.823 97.9733 300.65 97.52C301.477 97.04 302.41 96.8 303.45 96.8C304.783 96.8 305.917 97.1867 306.85 97.96C307.783 98.7067 308.57 99.6933 309.21 100.92C309.85 102.12 310.37 103.427 310.77 104.84C311.17 106.253 311.49 107.627 311.73 108.96C311.97 110.293 312.183 111.44 312.37 112.4V113.4C312.37 113.987 312.21 114.573 311.89 115.16C311.57 115.72 311.063 116 310.37 116C309.65 116 309.117 115.813 308.77 115.44C308.45 115.067 308.237 114.587 308.13 114C308.077 113.76 308.01 113.373 307.93 112.84C307.85 112.28 307.757 111.68 307.65 111.04C307.543 110.373 307.45 109.76 307.37 109.2C307.29 108.613 307.223 108.187 307.17 107.92C307.09 107.387 306.903 106.76 306.61 106.04C306.343 105.293 306.09 104.653 305.85 104.12C305.61 103.56 305.303 102.973 304.93 102.36C304.557 101.747 304.01 101.44 303.29 101.44C302.65 101.44 302.063 101.667 301.53 102.12C301.023 102.573 300.57 103.107 300.17 103.72C299.797 104.333 299.463 104.88 299.17 105.36C298.503 106.427 297.903 107.493 297.37 108.56C296.837 109.627 296.263 110.787 295.65 112.04C295.41 112.547 295.183 113.133 294.97 113.8C294.757 114.44 294.463 115 294.09 115.48C293.717 115.96 293.157 116.2 292.41 116.2ZM318.363 117.4C317.883 117.4 317.523 117.24 317.283 116.92C317.043 116.6 316.883 116.227 316.803 115.8C316.723 115.347 316.643 114.947 316.563 114.6V111.64C316.563 110.147 316.63 108.64 316.763 107.12C316.896 105.573 316.963 104.067 316.963 102.6C316.963 101.907 316.896 101.24 316.763 100.6C316.63 99.96 316.563 99.3067 316.563 98.64V97.56C316.776 97.16 317.056 96.8667 317.403 96.68C317.776 96.4933 318.163 96.4 318.563 96.4C319.15 96.4 319.59 96.5733 319.883 96.92C320.176 97.24 320.376 97.6267 320.483 98.08C320.616 98.5333 320.736 98.9467 320.843 99.32C320.95 99.6667 321.123 99.8667 321.363 99.92C322.136 99.4133 322.87 98.92 323.563 98.44C324.283 97.96 325.03 97.5733 325.803 97.28C326.603 96.96 327.483 96.8 328.443 96.8C328.923 96.8 329.43 96.9067 329.963 97.12C330.523 97.3333 331.003 97.64 331.403 98.04C331.803 98.4133 332.003 98.88 332.003 99.44C332.003 100.133 331.723 100.64 331.163 100.96C330.63 101.28 330.123 101.44 329.643 101.44C329.323 101.44 329.016 101.373 328.723 101.24C328.43 101.107 328.123 101.04 327.803 101.04C326.87 101.04 325.99 101.28 325.163 101.76C324.363 102.213 323.656 102.76 323.043 103.4C322.43 104.04 321.936 104.64 321.563 105.2C321.456 105.44 321.376 105.84 321.323 106.4C321.27 106.96 321.23 107.6 321.203 108.32C321.176 109.013 321.15 109.693 321.123 110.36C321.123 111.027 321.11 111.6 321.083 112.08C321.056 112.96 320.963 113.813 320.803 114.64C320.67 115.44 320.416 116.107 320.043 116.64C319.67 117.147 319.11 117.4 318.363 117.4ZM337.014 92.36C336.214 92.36 335.521 92.1067 334.934 91.6C334.347 91.0933 334.054 90.3467 334.054 89.36C334.054 88.3733 334.401 87.68 335.094 87.28C335.787 86.88 336.494 86.68 337.214 86.68C338.041 86.68 338.734 86.9333 339.294 87.44C339.881 87.9467 340.174 88.7067 340.174 89.72C340.174 90.68 339.827 91.36 339.134 91.76C338.467 92.16 337.761 92.36 337.014 92.36ZM335.414 116.4C334.907 116.4 334.521 116.133 334.254 115.6C333.987 115.067 333.787 114.533 333.654 114V108.84C333.654 108.707 333.681 108.36 333.734 107.8C333.814 107.213 333.894 106.533 333.974 105.76C334.081 104.96 334.174 104.2 334.254 103.48C334.361 102.733 334.441 102.147 334.494 101.72C334.574 101.187 334.667 100.6 334.774 99.96C334.907 99.32 335.134 98.76 335.454 98.28C335.774 97.8 336.227 97.56 336.814 97.56C337.454 97.56 337.907 97.72 338.174 98.04C338.467 98.3333 338.641 98.7067 338.694 99.16C338.747 99.6133 338.774 100.08 338.774 100.56V101.96C338.774 102.013 338.761 102.133 338.734 102.32C338.707 102.48 338.667 102.667 338.614 102.88C338.427 103.813 338.281 104.507 338.174 104.96C338.094 105.387 338.027 105.76 337.974 106.08C337.947 106.373 337.934 106.787 337.934 107.32C337.934 107.64 337.934 108.04 337.934 108.52C337.961 109 337.974 109.627 337.974 110.4C337.974 110.747 337.987 111.093 338.014 111.44C338.041 111.76 338.054 112.107 338.054 112.48C338.054 112.88 338.014 113.307 337.934 113.76C337.827 114.427 337.587 115.04 337.214 115.6C336.841 116.133 336.241 116.4 335.414 116.4ZM350.843 117.6C350.096 117.6 349.243 117.533 348.283 117.4C347.323 117.293 346.389 117.08 345.483 116.76C344.576 116.44 343.816 115.96 343.203 115.32C342.616 114.68 342.323 113.84 342.323 112.8C342.323 112.107 342.496 111.507 342.843 111C343.189 110.467 343.749 110.2 344.523 110.2C345.003 110.2 345.376 110.32 345.643 110.56C345.909 110.8 346.136 111.093 346.323 111.44C346.536 111.787 346.776 112.147 347.043 112.52C347.336 112.867 347.723 113.16 348.203 113.4C348.709 113.64 349.389 113.76 350.243 113.76C350.856 113.76 351.523 113.693 352.243 113.56C352.989 113.4 353.629 113.12 354.163 112.72C354.696 112.32 354.963 111.773 354.963 111.08C354.963 110.467 354.709 109.987 354.203 109.64C353.696 109.267 353.043 108.947 352.243 108.68C351.443 108.413 350.603 108.147 349.723 107.88C348.843 107.587 348.003 107.227 347.203 106.8C346.403 106.373 345.749 105.813 345.243 105.12C344.736 104.4 344.483 103.48 344.483 102.36C344.483 101.32 344.736 100.427 345.243 99.68C345.749 98.9333 346.403 98.32 347.203 97.84C348.029 97.3333 348.909 96.9733 349.843 96.76C350.803 96.52 351.723 96.4 352.603 96.4C353.109 96.4 353.696 96.4667 354.363 96.6C355.029 96.7067 355.683 96.8933 356.323 97.16C356.963 97.4267 357.496 97.8 357.923 98.28C358.349 98.7333 358.563 99.3067 358.563 100C358.563 101.227 357.949 101.84 356.723 101.84H356.203C355.403 101.387 354.723 101.04 354.163 100.8C353.603 100.56 352.963 100.44 352.243 100.44C351.923 100.44 351.469 100.48 350.883 100.56C350.323 100.613 349.816 100.76 349.363 101C348.909 101.24 348.683 101.627 348.683 102.16C348.683 102.613 348.936 102.987 349.443 103.28C349.949 103.573 350.603 103.853 351.403 104.12C352.203 104.387 353.043 104.68 353.923 105C354.803 105.32 355.643 105.733 356.443 106.24C357.243 106.72 357.896 107.333 358.403 108.08C358.909 108.827 359.163 109.76 359.163 110.88C359.163 112.507 358.749 113.813 357.923 114.8C357.123 115.787 356.083 116.507 354.803 116.96C353.549 117.387 352.229 117.6 350.843 117.6ZM373.68 117.6C371.76 117.6 369.987 117.307 368.36 116.72C366.76 116.107 365.467 115.147 364.48 113.84C363.493 112.507 363 110.787 363 108.68C363 107.08 363.253 105.52 363.76 104C364.293 102.48 365.053 101.107 366.04 99.88C367.027 98.6267 368.213 97.64 369.6 96.92C370.987 96.1733 372.547 95.8 374.28 95.8C375.453 95.8 376.547 96.04 377.56 96.52C378.6 96.9733 379.427 97.6533 380.04 98.56C380.68 99.44 381 100.52 381 101.8C381 103.027 380.747 104.2 380.24 105.32C379.733 106.44 379.04 107.44 378.16 108.32C377.28 109.2 376.28 109.893 375.16 110.4C374.067 110.88 372.92 111.12 371.72 111.12C371.533 111.12 371.12 111.08 370.48 111C369.84 110.893 369.333 110.787 368.96 110.68C368.693 110.627 368.48 110.52 368.32 110.36C368.267 110.333 368.173 110.293 368.04 110.24C367.907 110.16 367.813 110.12 367.76 110.12C367.947 110.893 368.333 111.547 368.92 112.08C369.533 112.587 370.227 112.96 371 113.2C371.8 113.44 372.56 113.56 373.28 113.56C373.787 113.56 374.293 113.533 374.8 113.48C375.333 113.4 375.893 113.36 376.48 113.36C377.067 113.36 377.573 113.52 378 113.84C378.427 114.16 378.64 114.68 378.64 115.4C378.64 115.987 378.453 116.44 378.08 116.76C377.733 117.08 377.28 117.293 376.72 117.4C376.187 117.507 375.64 117.56 375.08 117.56C374.547 117.587 374.08 117.6 373.68 117.6ZM371.72 106.48C372.52 106.48 373.307 106.333 374.08 106.04C374.88 105.72 375.533 105.253 376.04 104.64C376.573 104.027 376.84 103.267 376.84 102.36C376.84 101.587 376.6 100.973 376.12 100.52C375.667 100.067 375.053 99.84 374.28 99.84C373.587 99.84 372.853 100.027 372.08 100.4C371.307 100.773 370.573 101.253 369.88 101.84C369.213 102.427 368.667 103.067 368.24 103.76C367.813 104.427 367.6 105.08 367.6 105.72V105.88C368.293 105.987 368.987 106.12 369.68 106.28C370.373 106.413 371.053 106.48 371.72 106.48ZM248.2 167.6C246.867 167.253 245.747 166.667 244.84 165.84C243.96 164.987 243.293 163.987 242.84 162.84C242.413 161.693 242.2 160.493 242.2 159.24C242.2 157.507 242.573 155.84 243.32 154.24C244.067 152.613 245.067 151.173 246.32 149.92C247.6 148.64 249.04 147.627 250.64 146.88C252.267 146.133 253.947 145.76 255.68 145.76C256.293 145.76 256.88 145.853 257.44 146.04C258.027 146.2 258.613 146.293 259.2 146.32L259.36 145.8C259.387 145.32 259.427 144.72 259.48 144C259.533 143.28 259.6 142.533 259.68 141.76C259.787 140.96 259.893 140.2 260 139.48C260.133 138.76 260.28 138.187 260.44 137.76C260.653 137.147 260.96 136.627 261.36 136.2C261.76 135.747 262.293 135.52 262.96 135.52C263.627 135.52 264.053 135.733 264.24 136.16C264.453 136.587 264.56 137.12 264.56 137.76V138.76C264.187 141.827 263.893 144.853 263.68 147.84C263.493 150.8 263.4 153.76 263.4 156.72C263.4 158.08 263.467 159.413 263.6 160.72C263.733 162 263.8 163.347 263.8 164.76C263.8 165.267 263.72 165.773 263.56 166.28C263.427 166.76 263.027 167 262.36 167C261.667 167 261.133 166.813 260.76 166.44C260.387 166.04 260.12 165.547 259.96 164.96C259.8 164.373 259.667 163.813 259.56 163.28C259.507 162.88 259.453 162.68 259.4 162.68H259.24C257.853 164.2 256.427 165.4 254.96 166.28C253.52 167.16 251.853 167.6 249.96 167.6H248.2ZM249.72 163.52C250.76 163.52 251.76 163.24 252.72 162.68C253.68 162.12 254.533 161.387 255.28 160.48C256.053 159.573 256.653 158.6 257.08 157.56C257.533 156.493 257.76 155.48 257.76 154.52C257.76 154.28 257.707 153.92 257.6 153.44C257.493 152.96 257.36 152.453 257.2 151.92C257.04 151.387 256.867 150.947 256.68 150.6C256.52 150.227 256.373 150.04 256.24 150.04C254.96 150.04 253.747 150.307 252.6 150.84C251.453 151.347 250.427 152.04 249.52 152.92C248.64 153.8 247.933 154.8 247.4 155.92C246.893 157.04 246.64 158.213 246.64 159.44V161.04C246.853 161.813 247.213 162.427 247.72 162.88C248.227 163.307 248.893 163.52 249.72 163.52ZM279.657 167.6C277.737 167.6 275.963 167.307 274.337 166.72C272.737 166.107 271.443 165.147 270.457 163.84C269.47 162.507 268.977 160.787 268.977 158.68C268.977 157.08 269.23 155.52 269.737 154C270.27 152.48 271.03 151.107 272.017 149.88C273.003 148.627 274.19 147.64 275.577 146.92C276.963 146.173 278.523 145.8 280.257 145.8C281.43 145.8 282.523 146.04 283.537 146.52C284.577 146.973 285.403 147.653 286.017 148.56C286.657 149.44 286.977 150.52 286.977 151.8C286.977 153.027 286.723 154.2 286.217 155.32C285.71 156.44 285.017 157.44 284.137 158.32C283.257 159.2 282.257 159.893 281.137 160.4C280.043 160.88 278.897 161.12 277.697 161.12C277.51 161.12 277.097 161.08 276.457 161C275.817 160.893 275.31 160.787 274.937 160.68C274.67 160.627 274.457 160.52 274.297 160.36C274.243 160.333 274.15 160.293 274.017 160.24C273.883 160.16 273.79 160.12 273.737 160.12C273.923 160.893 274.31 161.547 274.897 162.08C275.51 162.587 276.203 162.96 276.977 163.2C277.777 163.44 278.537 163.56 279.257 163.56C279.763 163.56 280.27 163.533 280.777 163.48C281.31 163.4 281.87 163.36 282.457 163.36C283.043 163.36 283.55 163.52 283.977 163.84C284.403 164.16 284.617 164.68 284.617 165.4C284.617 165.987 284.43 166.44 284.057 166.76C283.71 167.08 283.257 167.293 282.697 167.4C282.163 167.507 281.617 167.56 281.057 167.56C280.523 167.587 280.057 167.6 279.657 167.6ZM277.697 156.48C278.497 156.48 279.283 156.333 280.057 156.04C280.857 155.72 281.51 155.253 282.017 154.64C282.55 154.027 282.817 153.267 282.817 152.36C282.817 151.587 282.577 150.973 282.097 150.52C281.643 150.067 281.03 149.84 280.257 149.84C279.563 149.84 278.83 150.027 278.057 150.4C277.283 150.773 276.55 151.253 275.857 151.84C275.19 152.427 274.643 153.067 274.217 153.76C273.79 154.427 273.577 155.08 273.577 155.72V155.88C274.27 155.987 274.963 156.12 275.657 156.28C276.35 156.413 277.03 156.48 277.697 156.48ZM294.925 167.2C294.312 167.2 293.845 167 293.525 166.6C293.232 166.173 293.032 165.653 292.925 165.04C292.845 164.427 292.805 163.8 292.805 163.16C292.805 162.84 292.805 162.533 292.805 162.24C292.832 161.92 292.845 161.627 292.845 161.36C292.845 160.72 292.858 159.733 292.885 158.4C292.912 157.067 292.952 155.547 293.005 153.84C293.058 152.107 293.125 150.307 293.205 148.44C293.285 146.573 293.392 144.773 293.525 143.04C293.685 141.307 293.858 139.787 294.045 138.48C294.232 137.28 294.565 136.32 295.045 135.6C295.552 134.88 296.058 134.52 296.565 134.52C297.018 134.52 297.405 134.88 297.725 135.6C298.045 136.32 298.165 137.507 298.085 139.16C297.578 142.227 297.205 145.187 296.965 148.04C296.725 150.893 296.605 153.84 296.605 156.88C296.605 158.16 296.672 159.44 296.805 160.72C296.938 162 297.005 163.28 297.005 164.56C297.005 165.387 296.832 166.04 296.485 166.52C296.138 166.973 295.618 167.2 294.925 167.2ZM306.155 142.36C305.355 142.36 304.661 142.107 304.075 141.6C303.488 141.093 303.195 140.347 303.195 139.36C303.195 138.373 303.541 137.68 304.235 137.28C304.928 136.88 305.635 136.68 306.355 136.68C307.181 136.68 307.875 136.933 308.435 137.44C309.021 137.947 309.315 138.707 309.315 139.72C309.315 140.68 308.968 141.36 308.275 141.76C307.608 142.16 306.901 142.36 306.155 142.36ZM304.555 166.4C304.048 166.4 303.661 166.133 303.395 165.6C303.128 165.067 302.928 164.533 302.795 164V158.84C302.795 158.707 302.821 158.36 302.875 157.8C302.955 157.213 303.035 156.533 303.115 155.76C303.221 154.96 303.315 154.2 303.395 153.48C303.501 152.733 303.581 152.147 303.635 151.72C303.715 151.187 303.808 150.6 303.915 149.96C304.048 149.32 304.275 148.76 304.595 148.28C304.915 147.8 305.368 147.56 305.955 147.56C306.595 147.56 307.048 147.72 307.315 148.04C307.608 148.333 307.781 148.707 307.835 149.16C307.888 149.613 307.915 150.08 307.915 150.56V151.96C307.915 152.013 307.901 152.133 307.875 152.32C307.848 152.48 307.808 152.667 307.755 152.88C307.568 153.813 307.421 154.507 307.315 154.96C307.235 155.387 307.168 155.76 307.115 156.08C307.088 156.373 307.075 156.787 307.075 157.32C307.075 157.64 307.075 158.04 307.075 158.52C307.101 159 307.115 159.627 307.115 160.4C307.115 160.747 307.128 161.093 307.155 161.44C307.181 161.76 307.195 162.107 307.195 162.48C307.195 162.88 307.155 163.307 307.075 163.76C306.968 164.427 306.728 165.04 306.355 165.6C305.981 166.133 305.381 166.4 304.555 166.4ZM319.943 178.28C319.17 178.013 318.423 177.653 317.703 177.2C317.01 176.773 316.437 176.267 315.983 175.68C315.557 175.12 315.343 174.507 315.343 173.84C315.343 173.227 315.557 172.773 315.983 172.48C316.437 172.187 316.917 172.04 317.423 172.04C318.01 172.04 318.49 172.213 318.863 172.56C319.263 172.933 319.677 173.293 320.103 173.64C320.557 174.013 321.103 174.2 321.743 174.2C322.517 174.2 323.197 173.947 323.783 173.44C324.37 172.933 324.863 172.28 325.263 171.48C325.663 170.68 325.97 169.827 326.183 168.92C326.423 168.013 326.557 167.16 326.583 166.36C326.61 166.173 326.65 165.773 326.703 165.16C326.757 164.52 326.81 163.853 326.863 163.16C326.943 162.467 326.983 161.96 326.983 161.64V161.24C326.983 161.027 326.93 160.92 326.823 160.92H326.663C325.863 161.853 325.037 162.813 324.183 163.8C323.357 164.787 322.423 165.613 321.383 166.28C320.343 166.92 319.143 167.24 317.783 167.24C316.743 167.24 315.77 166.973 314.863 166.44C313.957 165.907 313.223 165.187 312.663 164.28C312.103 163.373 311.823 162.36 311.823 161.24C311.823 159.4 312.183 157.573 312.903 155.76C313.623 153.92 314.623 152.253 315.903 150.76C317.183 149.267 318.663 148.067 320.343 147.16C322.05 146.253 323.89 145.8 325.863 145.8C326.397 145.8 326.957 145.893 327.543 146.08C328.13 146.267 328.623 146.573 329.023 147C329.45 147.4 329.663 147.947 329.663 148.64C329.663 149.253 329.437 149.747 328.983 150.12C328.557 150.493 328.037 150.68 327.423 150.68C326.997 150.68 326.57 150.613 326.143 150.48C325.743 150.347 325.33 150.28 324.903 150.28H324.103C322.637 150.707 321.303 151.467 320.103 152.56C318.93 153.627 317.997 154.88 317.303 156.32C316.61 157.733 316.263 159.173 316.263 160.64V162C316.477 162.773 316.917 163.16 317.583 163.16C318.197 163.16 318.81 162.933 319.423 162.48C320.037 162.027 320.637 161.467 321.223 160.8C321.81 160.107 322.357 159.427 322.863 158.76C323.37 158.067 323.837 157.493 324.263 157.04C324.663 156.347 325.117 155.693 325.623 155.08C326.13 154.44 326.597 153.773 327.023 153.08C327.317 152.707 327.597 152.453 327.863 152.32C328.13 152.187 328.45 152.12 328.823 152.12C329.49 152.12 329.97 152.307 330.263 152.68C330.583 153.027 330.81 153.467 330.943 154C331.077 154.533 331.17 155.04 331.223 155.52V158.52C331.223 159.613 331.183 160.853 331.103 162.24C331.05 163.627 330.917 165.067 330.703 166.56C330.517 168.027 330.21 169.453 329.783 170.84C329.357 172.227 328.783 173.48 328.063 174.6C327.37 175.72 326.49 176.613 325.423 177.28C324.357 177.947 323.063 178.28 321.543 178.28H319.943ZM337.943 166.8C337.196 166.8 336.636 166.547 336.263 166.04C335.916 165.507 335.743 164.893 335.743 164.2C335.743 162.6 335.836 160.973 336.023 159.32C336.236 157.667 336.343 156.067 336.343 154.52C336.343 151.853 336.236 149.253 336.023 146.72C335.836 144.187 335.743 141.587 335.743 138.92V137.88C335.929 137.453 336.183 137.16 336.503 137C336.849 136.813 337.209 136.72 337.583 136.72C338.196 136.72 338.689 136.933 339.063 137.36C339.463 137.787 339.769 138.307 339.983 138.92C340.196 139.533 340.343 140.147 340.423 140.76C340.529 141.373 340.583 141.88 340.583 142.28V155.56L340.823 155.8L340.863 155.76C341.583 155.04 342.263 154.227 342.903 153.32C343.569 152.413 344.249 151.547 344.943 150.72C345.663 149.867 346.449 149.16 347.303 148.6C348.183 148.04 349.196 147.76 350.343 147.76C351.356 147.76 352.223 148.027 352.943 148.56C353.689 149.093 354.276 149.787 354.703 150.64C355.129 151.493 355.409 152.387 355.543 153.32L356.743 161.8V163C356.743 163.427 356.716 163.88 356.663 164.36C356.609 164.813 356.449 165.2 356.183 165.52C355.943 165.84 355.516 166 354.903 166C354.209 166 353.663 165.733 353.263 165.2C352.889 164.64 352.623 163.96 352.463 163.16C352.303 162.36 352.196 161.573 352.143 160.8C352.089 160.027 352.036 159.413 351.983 158.96C351.956 158.773 351.916 158.427 351.863 157.92C351.836 157.413 351.783 156.827 351.703 156.16C351.623 155.493 351.516 154.853 351.383 154.24C351.249 153.6 351.076 153.08 350.863 152.68C350.676 152.253 350.436 152.04 350.143 152.04C349.689 152.04 349.236 152.227 348.783 152.6C348.329 152.973 347.956 153.36 347.663 153.76C346.276 155.573 344.943 157.493 343.663 159.52C342.409 161.52 341.156 163.48 339.903 165.4C339.689 165.747 339.423 166.067 339.103 166.36C338.783 166.653 338.396 166.8 337.943 166.8ZM367.068 167.8C366.242 167.8 365.628 167.547 365.228 167.04C364.828 166.533 364.562 165.92 364.428 165.2C364.322 164.453 364.268 163.773 364.268 163.16V161.64C364.268 159.96 364.295 158.267 364.348 156.56C364.428 154.853 364.482 153.013 364.508 151.04C363.842 151.067 363.268 151.107 362.788 151.16C362.335 151.213 361.868 151.24 361.388 151.24C360.162 151.24 359.548 150.64 359.548 149.44C359.548 148.987 359.628 148.56 359.788 148.16C359.948 147.733 360.282 147.467 360.788 147.36L364.308 146.56C364.762 146.453 365.055 146.173 365.188 145.72C365.348 145.24 365.428 144.693 365.428 144.08C365.455 143.44 365.495 142.813 365.548 142.2C365.628 141.587 365.828 141.08 366.148 140.68C366.495 140.28 367.068 140.08 367.868 140.08C368.428 140.08 368.842 140.24 369.108 140.56C369.402 140.853 369.602 141.213 369.708 141.64C369.815 142.067 369.868 142.48 369.868 142.88C369.868 142.933 369.855 143.12 369.828 143.44C369.802 143.733 369.762 144.027 369.708 144.32C369.682 144.613 369.668 144.8 369.668 144.88V146.16H374.548C375.135 146.16 375.588 146.44 375.908 147C376.228 147.533 376.388 148.08 376.388 148.64C376.388 148.747 376.348 148.947 376.268 149.24C376.188 149.533 376.042 149.813 375.828 150.08C375.615 150.32 375.322 150.44 374.948 150.44H369.828C369.802 150.44 369.748 150.467 369.668 150.52C369.588 150.547 369.495 150.627 369.388 150.76L369.308 150.88C369.175 151.6 369.082 152.187 369.028 152.64C368.975 153.067 368.935 153.467 368.908 153.84C368.908 154.187 368.908 154.613 368.908 155.12C368.908 156.587 368.935 158.053 368.988 159.52C369.068 160.987 369.108 162.533 369.108 164.16C369.108 164.693 369.068 165.24 368.988 165.8C368.908 166.36 368.722 166.827 368.428 167.2C368.135 167.6 367.682 167.8 367.068 167.8ZM387.523 167.6C386.776 167.6 385.923 167.533 384.963 167.4C384.003 167.293 383.069 167.08 382.163 166.76C381.256 166.44 380.496 165.96 379.883 165.32C379.296 164.68 379.003 163.84 379.003 162.8C379.003 162.107 379.176 161.507 379.523 161C379.869 160.467 380.429 160.2 381.203 160.2C381.683 160.2 382.056 160.32 382.323 160.56C382.589 160.8 382.816 161.093 383.003 161.44C383.216 161.787 383.456 162.147 383.723 162.52C384.016 162.867 384.403 163.16 384.883 163.4C385.389 163.64 386.069 163.76 386.923 163.76C387.536 163.76 388.203 163.693 388.923 163.56C389.669 163.4 390.309 163.12 390.843 162.72C391.376 162.32 391.643 161.773 391.643 161.08C391.643 160.467 391.389 159.987 390.883 159.64C390.376 159.267 389.723 158.947 388.923 158.68C388.123 158.413 387.283 158.147 386.403 157.88C385.523 157.587 384.683 157.227 383.883 156.8C383.083 156.373 382.429 155.813 381.923 155.12C381.416 154.4 381.163 153.48 381.163 152.36C381.163 151.32 381.416 150.427 381.923 149.68C382.429 148.933 383.083 148.32 383.883 147.84C384.709 147.333 385.589 146.973 386.523 146.76C387.483 146.52 388.403 146.4 389.283 146.4C389.789 146.4 390.376 146.467 391.043 146.6C391.709 146.707 392.363 146.893 393.003 147.16C393.643 147.427 394.176 147.8 394.603 148.28C395.029 148.733 395.243 149.307 395.243 150C395.243 151.227 394.629 151.84 393.403 151.84H392.883C392.083 151.387 391.403 151.04 390.843 150.8C390.283 150.56 389.643 150.44 388.923 150.44C388.603 150.44 388.149 150.48 387.562 150.56C387.003 150.613 386.496 150.76 386.043 151C385.589 151.24 385.363 151.627 385.363 152.16C385.363 152.613 385.616 152.987 386.123 153.28C386.629 153.573 387.283 153.853 388.083 154.12C388.883 154.387 389.723 154.68 390.603 155C391.483 155.32 392.323 155.733 393.123 156.24C393.923 156.72 394.576 157.333 395.083 158.08C395.589 158.827 395.843 159.76 395.843 160.88C395.843 162.507 395.429 163.813 394.603 164.8C393.803 165.787 392.763 166.507 391.483 166.96C390.229 167.387 388.909 167.6 387.523 167.6ZM251.88 216.6C251.373 216.6 250.973 216.6 250.68 216.6C250.413 216.573 250.08 216.507 249.68 216.4C249.493 216.293 249.24 216.173 248.92 216.04C248.6 215.88 248.293 215.733 248 215.6C247.707 215.467 247.493 215.4 247.36 215.4C247.173 215.4 246.88 215.573 246.48 215.92C246.107 216.24 245.68 216.4 245.2 216.4C244.507 216.4 244.027 216.16 243.76 215.68C243.493 215.173 243.36 214.6 243.36 213.96C243.36 213.373 243.387 212.853 243.44 212.4C243.493 211.92 243.6 211.387 243.76 210.8C244.16 207.867 244.467 204.853 244.68 201.76C244.92 198.64 245.04 195.547 245.04 192.48C245.04 191.707 245.04 190.947 245.04 190.2C245.04 189.453 245.013 188.707 244.96 187.96C244.933 187.427 245.093 187.053 245.44 186.84C245.787 186.627 246.173 186.52 246.6 186.52H246.96C247.547 186.52 248.04 186.667 248.44 186.96C248.84 187.253 249.093 187.773 249.2 188.52V190.68C249.2 192.227 249.173 193.773 249.12 195.32C249.067 196.867 249.027 198.52 249 200.28H249.12C250.213 199.027 251.427 197.96 252.76 197.08C254.093 196.2 255.573 195.76 257.2 195.76C258.453 195.76 259.667 196.053 260.84 196.64C262.04 197.2 263.027 198 263.8 199.04C264.573 200.053 264.96 201.227 264.96 202.56C264.96 204.347 264.627 206.08 263.96 207.76C263.293 209.413 262.36 210.907 261.16 212.24C259.96 213.573 258.573 214.64 257 215.44C255.427 216.213 253.72 216.6 251.88 216.6ZM251.88 212.32C252.92 212.32 253.973 212.067 255.04 211.56C256.107 211.053 257.08 210.373 257.96 209.52C258.84 208.667 259.547 207.72 260.08 206.68C260.64 205.64 260.92 204.587 260.92 203.52C260.92 202.667 260.613 201.88 260 201.16C259.413 200.413 258.667 200.04 257.76 200.04C256.8 200.04 255.92 200.267 255.12 200.72C254.347 201.173 253.627 201.76 252.96 202.48C252.32 203.173 251.733 203.933 251.2 204.76C250.667 205.587 250.173 206.36 249.72 207.08C249.533 207.507 249.293 207.987 249 208.52C248.733 209.053 248.6 209.56 248.6 210.04C248.6 210.52 248.787 210.933 249.16 211.28C249.533 211.627 249.973 211.893 250.48 212.08C251.013 212.24 251.48 212.32 251.88 212.32ZM275.872 217.4C274.645 217.4 273.498 217.12 272.432 216.56C271.365 216 270.472 215.253 269.752 214.32C269.032 213.36 268.565 212.28 268.352 211.08V209.04C268.352 207.547 268.618 206.04 269.152 204.52C269.685 203 270.445 201.6 271.432 200.32C272.418 199.013 273.592 197.973 274.952 197.2C276.312 196.4 277.805 196 279.432 196C280.098 196 280.672 196.12 281.152 196.36C281.658 196.6 282.112 196.853 282.512 197.12C282.938 197.36 283.352 197.507 283.752 197.56C283.965 196.467 284.258 195.747 284.632 195.4C285.005 195.027 285.512 194.84 286.152 194.84C286.925 194.84 287.445 195.093 287.712 195.6C288.005 196.08 288.152 196.693 288.152 197.44C288.152 198.907 288.112 200.347 288.032 201.76C287.978 203.173 287.952 204.627 287.952 206.12C287.952 207.293 288.018 208.507 288.152 209.76C288.285 211.013 288.352 212.227 288.352 213.4V214.24C288.352 214.827 288.232 215.373 287.992 215.88C287.778 216.36 287.285 216.6 286.512 216.6C285.792 216.6 285.272 216.387 284.952 215.96C284.658 215.507 284.458 214.973 284.352 214.36C284.272 213.72 284.192 213.147 284.112 212.64L283.952 212.48C283.045 213.387 282.232 214.213 281.512 214.96C280.818 215.707 280.045 216.307 279.192 216.76C278.338 217.187 277.232 217.4 275.872 217.4ZM275.472 213.36C276.405 213.36 277.285 213.08 278.112 212.52C278.965 211.933 279.725 211.187 280.392 210.28C281.058 209.347 281.578 208.373 281.952 207.36C282.325 206.347 282.512 205.4 282.512 204.52C282.512 203.853 282.418 203.187 282.232 202.52C282.045 201.827 281.725 201.24 281.272 200.76C280.845 200.28 280.232 200.04 279.432 200.04C278.552 200.04 277.685 200.347 276.832 200.96C276.005 201.573 275.258 202.36 274.592 203.32C273.925 204.253 273.392 205.24 272.992 206.28C272.592 207.293 272.392 208.213 272.392 209.04C272.392 209.707 272.485 210.373 272.672 211.04C272.885 211.707 273.218 212.267 273.672 212.72C274.125 213.147 274.725 213.36 275.472 213.36ZM295.127 217.4C294.54 217.4 294.047 217.187 293.647 216.76C293.273 216.333 293.087 215.853 293.087 215.32V214.56L294.487 199.96V190.92C294.487 190.36 294.513 189.72 294.567 189C294.62 188.28 294.807 187.653 295.127 187.12C295.473 186.587 296.06 186.32 296.887 186.32C297.633 186.32 298.153 186.573 298.447 187.08C298.767 187.587 298.953 188.187 299.007 188.88C299.087 189.573 299.127 190.187 299.127 190.72C299.127 192.267 299.06 193.853 298.927 195.48C298.82 197.08 298.753 198.827 298.727 200.72H299.207C299.26 200.72 299.5 200.653 299.927 200.52C300.353 200.36 300.86 200.187 301.447 200C302.033 199.787 302.607 199.573 303.167 199.36C303.753 199.12 304.22 198.92 304.567 198.76C305.047 198.52 305.58 198.253 306.167 197.96C306.753 197.64 307.353 197.36 307.967 197.12C308.58 196.88 309.153 196.76 309.687 196.76C310.3 196.76 310.78 196.987 311.127 197.44C311.5 197.867 311.687 198.387 311.687 199C311.687 199.72 311.42 200.227 310.887 200.52C310.353 200.787 309.82 201.027 309.287 201.24C309.02 201.373 308.54 201.587 307.847 201.88C307.18 202.173 306.42 202.493 305.567 202.84C304.713 203.16 303.887 203.48 303.087 203.8C302.287 204.093 301.607 204.347 301.047 204.56V204.68L301.247 204.88C301.433 205.067 301.62 205.227 301.807 205.36C302.02 205.493 302.22 205.653 302.407 205.84C302.807 206.08 303.407 206.467 304.207 207C305.007 207.533 305.86 208.107 306.767 208.72C307.7 209.333 308.553 209.907 309.327 210.44C310.127 210.947 310.7 211.307 311.047 211.52C311.393 211.787 311.767 212.067 312.167 212.36C312.567 212.627 312.913 212.947 313.207 213.32C313.527 213.667 313.687 214.08 313.687 214.56C313.687 215.2 313.5 215.733 313.127 216.16C312.78 216.587 312.353 216.8 311.847 216.8C311.207 216.8 310.567 216.613 309.927 216.24C309.313 215.867 308.713 215.427 308.127 214.92C307.567 214.413 307.033 213.987 306.527 213.64C306.26 213.453 305.753 213.12 305.007 212.64C304.287 212.16 303.473 211.627 302.567 211.04C301.687 210.453 300.847 209.893 300.047 209.36C299.273 208.827 298.673 208.413 298.247 208.12H298.087L297.927 208.48L297.127 215.56C297.02 216.093 296.767 216.533 296.367 216.88C295.993 217.227 295.58 217.4 295.127 217.4ZM327.547 217.6C325.627 217.6 323.854 217.307 322.227 216.72C320.627 216.107 319.334 215.147 318.347 213.84C317.361 212.507 316.867 210.787 316.867 208.68C316.867 207.08 317.121 205.52 317.627 204C318.161 202.48 318.921 201.107 319.907 199.88C320.894 198.627 322.081 197.64 323.467 196.92C324.854 196.173 326.414 195.8 328.147 195.8C329.321 195.8 330.414 196.04 331.427 196.52C332.467 196.973 333.294 197.653 333.907 198.56C334.547 199.44 334.867 200.52 334.867 201.8C334.867 203.027 334.614 204.2 334.107 205.32C333.601 206.44 332.907 207.44 332.027 208.32C331.147 209.2 330.147 209.893 329.027 210.4C327.934 210.88 326.787 211.12 325.587 211.12C325.401 211.12 324.987 211.08 324.347 211C323.707 210.893 323.201 210.787 322.827 210.68C322.561 210.627 322.347 210.52 322.187 210.36C322.134 210.333 322.041 210.293 321.907 210.24C321.774 210.16 321.681 210.12 321.627 210.12C321.814 210.893 322.201 211.547 322.787 212.08C323.401 212.587 324.094 212.96 324.867 213.2C325.667 213.44 326.427 213.56 327.147 213.56C327.654 213.56 328.161 213.533 328.667 213.48C329.201 213.4 329.761 213.36 330.347 213.36C330.934 213.36 331.441 213.52 331.867 213.84C332.294 214.16 332.507 214.68 332.507 215.4C332.507 215.987 332.321 216.44 331.947 216.76C331.601 217.08 331.147 217.293 330.587 217.4C330.054 217.507 329.507 217.56 328.947 217.56C328.414 217.587 327.947 217.6 327.547 217.6ZM325.587 206.48C326.387 206.48 327.174 206.333 327.947 206.04C328.747 205.72 329.401 205.253 329.907 204.64C330.441 204.027 330.707 203.267 330.707 202.36C330.707 201.587 330.467 200.973 329.987 200.52C329.534 200.067 328.921 199.84 328.147 199.84C327.454 199.84 326.721 200.027 325.947 200.4C325.174 200.773 324.441 201.253 323.747 201.84C323.081 202.427 322.534 203.067 322.107 203.76C321.681 204.427 321.467 205.08 321.467 205.72V205.88C322.161 205.987 322.854 206.12 323.547 206.28C324.241 206.413 324.921 206.48 325.587 206.48ZM341.176 217.4C340.696 217.4 340.336 217.24 340.096 216.92C339.856 216.6 339.696 216.227 339.616 215.8C339.536 215.347 339.456 214.947 339.376 214.6V211.64C339.376 210.147 339.442 208.64 339.576 207.12C339.709 205.573 339.776 204.067 339.776 202.6C339.776 201.907 339.709 201.24 339.576 200.6C339.442 199.96 339.376 199.307 339.376 198.64V197.56C339.589 197.16 339.869 196.867 340.216 196.68C340.589 196.493 340.976 196.4 341.376 196.4C341.962 196.4 342.402 196.573 342.696 196.92C342.989 197.24 343.189 197.627 343.296 198.08C343.429 198.533 343.549 198.947 343.656 199.32C343.762 199.667 343.936 199.867 344.176 199.92C344.949 199.413 345.682 198.92 346.376 198.44C347.096 197.96 347.842 197.573 348.616 197.28C349.416 196.96 350.296 196.8 351.256 196.8C351.736 196.8 352.242 196.907 352.776 197.12C353.336 197.333 353.816 197.64 354.216 198.04C354.616 198.413 354.816 198.88 354.816 199.44C354.816 200.133 354.536 200.64 353.976 200.96C353.442 201.28 352.936 201.44 352.456 201.44C352.136 201.44 351.829 201.373 351.536 201.24C351.242 201.107 350.936 201.04 350.616 201.04C349.682 201.04 348.802 201.28 347.976 201.76C347.176 202.213 346.469 202.76 345.856 203.4C345.242 204.04 344.749 204.64 344.376 205.2C344.269 205.44 344.189 205.84 344.136 206.4C344.082 206.96 344.042 207.6 344.016 208.32C343.989 209.013 343.962 209.693 343.936 210.36C343.936 211.027 343.922 211.6 343.896 212.08C343.869 212.96 343.776 213.813 343.616 214.64C343.482 215.44 343.229 216.107 342.856 216.64C342.482 217.147 341.922 217.4 341.176 217.4ZM361.387 227.48C360.907 227.48 360.547 227.24 360.307 226.76C360.067 226.307 359.947 225.853 359.947 225.4C359.947 224.547 360.133 223.733 360.507 222.96C360.88 222.213 361.213 221.453 361.507 220.68C361.64 220.333 361.8 219.88 361.987 219.32C362.2 218.787 362.4 218.24 362.587 217.68C362.8 217.12 362.973 216.64 363.107 216.24C363.24 215.84 363.307 215.613 363.307 215.56V215.44C361.84 215.333 360.613 214.947 359.627 214.28C358.64 213.613 357.853 212.773 357.267 211.76C356.68 210.747 356.24 209.64 355.947 208.44C355.653 207.213 355.453 205.973 355.347 204.72C355.267 203.467 355.227 202.293 355.227 201.2C355.227 200.853 355.24 200.4 355.267 199.84C355.293 199.253 355.36 198.667 355.467 198.08C355.6 197.493 355.8 197 356.067 196.6C356.36 196.2 356.76 196 357.267 196C358.253 196 358.893 196.36 359.187 197.08C359.507 197.8 359.667 198.587 359.667 199.44C359.667 200.027 359.627 200.573 359.547 201.08C359.493 201.587 359.467 202.147 359.467 202.76V203.16C359.467 203.347 359.507 203.747 359.587 204.36C359.667 204.973 359.747 205.6 359.827 206.24C359.933 206.88 360.013 207.36 360.067 207.68C360.2 208.56 360.467 209.333 360.867 210C361.267 210.64 361.827 210.96 362.547 210.96C363.4 210.96 364.147 210.627 364.787 209.96C365.453 209.293 366.04 208.427 366.547 207.36C367.08 206.293 367.587 205.173 368.067 204C368.547 202.8 369.027 201.667 369.507 200.6C369.987 199.533 370.507 198.667 371.067 198C371.653 197.333 372.307 197 373.027 197C374.227 197 374.827 197.667 374.827 199C374.827 199.907 374.68 200.773 374.387 201.6C374.12 202.427 373.773 203.227 373.347 204C372.947 204.773 372.52 205.533 372.067 206.28C371.613 207.027 371.213 207.787 370.867 208.56C369.8 210.827 368.813 213.16 367.907 215.56C367.027 217.933 366.173 220.32 365.347 222.72C365.133 223.333 364.867 224.013 364.547 224.76C364.227 225.507 363.813 226.147 363.307 226.68C362.827 227.213 362.187 227.48 361.387 227.48Z" fill="black"/>
</svg>
