<svg width="217" height="195" viewBox="0 0 217 195" fill="none" xmlns="http://www.w3.org/2000/svg">
<rect x="0.342247" y="0.905731" width="215.658" height="194.094" fill="white"/>
<path d="M107.143 1.42915C107.531 0.781814 108.469 0.781816 108.857 1.42915L121.897 23.1623C122.334 23.8905 121.725 24.8057 120.884 24.6869C117.772 24.2472 111.908 23.5 108 23.5C103.711 23.5 98.1472 24.223 95.1461 24.6651C94.3008 24.7896 93.6793 23.8678 94.1189 23.1351L107.143 1.42915Z" fill="#FF8811"/>
<path d="M59.3585 12.178C59.427 11.4261 60.272 11.0185 60.9031 11.4327L82.0915 25.3403C82.8014 25.8062 82.6501 26.8954 81.8412 27.1538C78.8475 28.11 73.2417 29.985 69.7216 31.6834C65.8585 33.5473 61.1618 36.6161 58.651 38.3184C57.9438 38.7979 56.9835 38.2377 57.061 37.3867L59.3585 12.178Z" fill="#FF8811"/>
<path d="M193.365 42.233C194.117 42.1617 194.673 42.9169 194.382 43.6136L184.622 67.0039C184.295 67.7876 183.197 67.8398 182.794 67.0924C181.302 64.3265 178.425 59.1629 176.106 56.0164C173.561 52.5634 169.679 48.5134 167.543 46.3598C166.941 45.7532 167.314 44.706 168.165 44.6252L193.365 42.233Z" fill="#FF8811"/>
<path d="M22.5577 42.233C21.8061 42.1617 21.2496 42.9169 21.5403 43.6136L31.3005 67.0039C31.6276 67.7876 32.726 67.8398 33.1291 67.0924C34.6212 64.3265 37.4981 59.1629 39.8167 56.0164C42.3612 52.5634 46.2438 48.5134 48.38 46.3598C48.9817 45.7532 48.6083 44.706 47.7576 44.6252L22.5577 42.233Z" fill="#FF8811"/>
<path d="M211.812 86.1587C212.521 86.4183 212.697 87.3397 212.135 87.843L193.245 104.741C192.612 105.307 191.599 104.881 191.557 104.033C191.403 100.894 191.033 94.9946 190.297 91.156C189.49 86.9435 187.732 81.6154 186.733 78.7513C186.451 77.9446 187.24 77.1606 188.042 77.4545L211.812 86.1587Z" fill="#FF8811"/>
<path d="M4.389 86.1587C3.68012 86.4183 3.50349 87.3397 4.06614 87.843L22.9557 104.741C23.5886 105.307 24.6022 104.881 24.6439 104.033C24.7979 100.894 25.1679 94.9946 25.9038 91.156C26.7113 86.9435 28.4688 81.6154 29.468 78.7513C29.7494 77.9446 28.961 77.1606 28.1587 77.4545L4.389 86.1587Z" fill="#FF8811"/>
<path d="M154.913 11.3788C155.542 10.9618 156.389 11.3657 156.461 12.1172L158.873 37.3471C158.954 38.1924 158.01 38.756 157.302 38.2868C154.683 36.5502 149.712 33.3513 146.184 31.6685C142.313 29.8218 136.98 28.0791 134.081 27.186C133.265 26.9345 133.101 25.8349 133.813 25.3628L154.913 11.3788Z" fill="#FF8811"/>
<path d="M108 29C151.078 29 186 63.9218 186 107H30C30 63.9218 64.9218 29 108 29Z" fill="#FFE500"/>
<path d="M80.3772 69.5897C79.9538 69.5897 79.0993 69.6547 78.6233 70.08C78.3715 70.305 78.2772 70.5733 78.228 70.8509C78.0815 71.6772 78.4081 72.2125 78.6041 72.6403C78.7024 72.8549 78.8994 73.0021 79.0958 73.133C79.2922 73.264 79.5876 73.3309 79.9317 73.2984C80.1957 73.2735 80.3762 73.069 80.5401 72.9218C80.8467 72.6466 80.771 72.1514 80.706 71.8561C80.6589 71.6419 80.3447 71.6582 80.2792 71.4618C80.1206 70.9859 80.2453 70.3793 80.4092 70.0013C80.4967 69.7995 80.77 69.7541 80.9664 69.7536C81.4588 69.7524 81.6236 70.3754 81.7713 70.7697C81.851 70.9824 81.9524 71.5214 81.9199 72.2592C81.9027 72.6517 81.6905 72.8377 81.5434 73.0016C81.4063 73.1542 81.1658 73.199 80.9694 73.2974C80.773 73.3309 80.5751 73.2659 80.3787 73.135C80.2797 73.069 80.1823 73.004 79.9834 72.9371" stroke="black" stroke-width="3" stroke-linecap="round"/>
<path d="M125.744 63.0461C125.714 62.6238 125.589 61.7759 125.132 61.3308C124.89 61.0954 124.616 61.0201 124.335 60.9904C123.501 60.902 122.99 61.2653 122.576 61.4907C122.369 61.6038 122.236 61.8106 122.119 62.0157C122.002 62.2208 121.956 62.5201 122.013 62.8611C122.056 63.1227 122.273 63.2885 122.431 63.4417C122.727 63.7283 123.216 63.6181 123.506 63.5327C123.716 63.4707 123.678 63.1584 123.869 63.0793C124.333 62.8878 124.947 62.9698 125.335 63.1068C125.543 63.18 125.607 63.4495 125.621 63.6454C125.657 64.1365 125.047 64.3444 124.664 64.5193C124.457 64.6137 123.927 64.7526 123.188 64.7718C122.796 64.782 122.595 64.5834 122.422 64.448C122.26 64.322 122.198 64.0852 122.086 63.8962C122.039 63.7026 122.09 63.5006 122.207 63.2955C122.266 63.1922 122.324 63.0905 122.377 62.8874" stroke="black" stroke-width="3" stroke-linecap="round"/>
<path d="M101.44 91.4583C101.748 91.5734 102.444 91.8071 102.988 92.0002C103.614 92.2225 105.109 92.156 106.377 92.2525C108.332 92.4013 109.186 92.0792 109.983 91.8664C110.931 91.6133 111.858 90.5746 112.659 89.6392C112.95 89.0188 113.26 88.2444 113.396 87.3927C113.416 87.0828 113.416 86.6607 113.416 86.2258" stroke="black" stroke-width="3" stroke-linecap="round"/>
<ellipse cx="108" cy="106.5" rx="78" ry="11.5" fill="#FFE500"/>
<path d="M160.963 183.594H160.884C159.065 189.963 136.083 195 108 195C79.9168 195 56.9353 189.963 55.1162 183.594H55.0371L31.0488 115.89C40.5502 121.475 71.1802 125.566 107.5 125.566C145.719 125.566 177.636 121.035 185.265 115.001L160.963 183.594ZM30.1533 115.314L30 115.75V115.207C30.0497 115.243 30.1019 115.278 30.1533 115.314Z" fill="#FF4365"/>
</svg>
