<svg width="350" height="350" viewBox="0 0 350 350" fill="none" xmlns="http://www.w3.org/2000/svg">
<circle cx="175" cy="175" r="175" fill="white"/>
<path d="M346.506 175.001C346.506 80.2809 269.72 3.49477 175.001 3.49446C80.2807 3.49446 3.49446 80.2807 3.49446 175.001C3.49477 269.72 80.2809 346.506 175.001 346.506V350L172.738 349.985C77.8835 348.784 1.21633 272.116 0.0147878 177.262L0 175.001C0 78.3507 78.3507 0 175.001 0L177.262 0.0147878C272.869 1.22587 350 79.1059 350 175.001L349.985 177.262C348.774 272.869 270.895 350 175.001 350V346.506C269.72 346.505 346.505 269.72 346.506 175.001Z" fill="black"/>
<path d="M172.396 290.931L189.673 329.169H155.118L172.396 290.931Z" fill="black"/>
<path d="M172.396 59.0694L189.673 20.831H155.118L172.396 59.0694Z" fill="black"/>
<path d="M233.45 196.038C234.764 194.349 236.36 194.161 238.237 195.475C240.115 196.602 240.396 198.104 239.082 199.981C237.58 202.234 234.764 207.397 230.634 215.469C225.377 225.42 221.153 233.023 217.962 238.28C200.69 266.816 182.198 281.084 162.485 281.084C146.903 281.084 134.23 275.64 124.468 264.751C114.893 253.674 110.106 239.218 110.106 221.383C110.106 206.74 113.391 193.692 119.962 182.24C126.909 170.037 143.385 149.222 156.902 144.904C143.899 144.622 125.724 141.021 129.846 114.231C131.796 106.619 133.01 99.4235 143.899 86.6573C148.592 81.2129 153.755 76.8949 159.387 73.7033C165.019 70.5118 170.276 68.916 175.157 68.916C185.295 68.916 193.274 72.2953 199.094 79.0539C201.535 81.87 203.506 85.1554 205.008 88.9102C210.828 103.366 207.16 115.794 206.416 119.887C206.04 121.952 204.726 122.797 202.473 122.422C200.408 122.046 199.563 120.732 199.939 118.479C200.868 112.904 202.473 106.584 201.347 99.8929C200.596 97.0768 199.845 94.6362 199.094 92.5711C198.906 92.1956 198.625 91.6324 198.249 90.8814C195.621 84.8738 191.303 81.87 185.295 81.87C182.291 81.87 178.63 82.9025 174.312 84.9677C169.994 87.0328 164.541 90.8691 160.786 94.8116C155.605 100.252 149.734 108.066 147.537 118.479C144.326 133.699 161.596 137.582 178.867 142.088C180.182 142.463 181.214 143.308 181.402 144.622C181.402 144.622 181.402 144.716 181.402 144.904C181.402 145.091 181.402 145.185 181.402 145.185C181.402 145.373 181.367 145.845 181.337 146.015C181.232 146.606 180.924 147.297 180.773 147.582C180.773 147.582 180.678 147.801 180.476 148.027C180.476 148.027 180.263 148.227 180.159 148.296C180.055 148.366 179.924 148.476 179.638 148.535C179.456 148.573 179.332 148.565 179.144 148.565C179.144 148.565 178.804 148.565 178.616 148.565C178.24 148.565 178.21 148.565 178.023 148.565C167.509 148.565 151.972 166.47 143.899 177.171C136.014 187.684 132.071 200.075 132.071 214.343C132.071 223.542 133.198 231.615 135.451 238.561C137.703 245.508 140.238 250.671 143.054 254.05C146.058 257.429 149.437 260.151 153.192 262.216C157.134 264.094 160.232 265.22 162.485 265.596C164.738 265.971 166.803 266.159 168.68 266.159C177.129 266.159 184.638 263.718 191.209 258.837C197.968 253.956 205.008 245.883 212.33 234.619C212.33 234.619 212.33 234.525 212.33 234.337C215.333 229.268 219.37 221.946 224.439 212.372C228.757 204.111 231.761 198.667 233.45 196.038Z" fill="black"/>
</svg>
